<svg width="24" height="17" viewBox="0 0 24 17" fill="none" xmlns="http://www.w3.org/2000/svg">
<path d="M6.70485 5.76436L5.73116 4.29058C4.52792 2.47156 5.78539 0 7.91314 0C8.51854 0 9.10503 0.215771 9.57548 0.610698L12.8308 3.3438C13.2558 2.87294 13.7154 2.43704 14.2056 2.04002C15.038 1.3757 16.0974 0.750622 17.2704 0.657775C20.0919 0.431542 22.2007 2.28325 23.3926 3.69949C24.0093 4.43181 24.1329 5.35766 23.8693 6.1619C23.7326 6.56427 23.509 6.92894 23.2157 7.22809C22.9224 7.52725 22.567 7.75298 22.1767 7.88807L15.4025 10.3099L11.4144 15.8245C11.029 16.3569 10.4807 16.738 9.85934 16.9054C9.23795 17.0729 8.58014 17.0168 7.99347 16.7464C7.4068 16.4759 6.92597 16.0072 6.62958 15.4167C6.33319 14.8261 6.23878 14.1489 6.36179 13.4955L6.67836 11.8164L3.48738 12.5317C3.06717 12.6258 2.63197 12.6212 2.21371 12.5181C1.79546 12.4151 1.40477 12.2162 1.07032 11.9362C0.735864 11.6561 0.466135 11.302 0.280925 10.8997C0.095715 10.4975 -0.000274598 10.0574 5.90024e-07 9.61162V4.82543C-0.000319006 4.33381 0.157377 3.85609 0.448169 3.46778C0.738961 3.07946 1.14627 2.80269 1.60572 2.6812C2.06517 2.55971 2.55057 2.60042 2.98521 2.79691C3.41985 2.9934 3.77895 3.33446 4.00576 3.76619L5.22413 6.08344L6.70485 5.76305V5.76436ZM7.29134 3.18295L8.71151 5.33151L11.1054 4.81366C11.2189 4.78881 11.3324 4.75089 11.4409 4.69989L8.38737 2.13548C8.2468 2.01876 8.07055 1.95815 7.89057 1.96462C7.71059 1.9711 7.53881 2.04424 7.40639 2.17079C7.27397 2.29733 7.18967 2.46889 7.1688 2.65435C7.14792 2.83981 7.19184 3.02688 7.2926 3.18164L7.29134 3.18295ZM17.4155 2.61279C16.776 2.6651 16.0684 3.02733 15.3609 3.59357C14.7306 4.11276 14.1556 4.70019 13.6456 5.34589C13.1158 6.0089 12.3767 6.54244 11.4913 6.73467L4.92269 8.15353C4.72402 8.19636 4.51732 8.17181 4.33313 8.08351C4.14895 7.9952 3.99703 7.84783 3.89981 7.66314L2.34468 4.70773C2.31912 4.65874 2.2785 4.62 2.22927 4.59769C2.18004 4.57538 2.12503 4.57077 2.07298 4.5846C2.02094 4.59843 1.97484 4.6299 1.94203 4.67401C1.90922 4.71812 1.89157 4.77234 1.89189 4.82804V9.61293C1.89189 10.2655 2.47207 10.7506 3.08882 10.6133L7.68359 9.58547C7.83663 9.55129 7.99546 9.55703 8.14584 9.60218C8.29622 9.64732 8.43344 9.73045 8.54519 9.84412C8.65695 9.95779 8.73975 10.0984 8.78617 10.2535C8.83259 10.4085 8.84117 10.573 8.81115 10.7323L8.21836 13.8708C8.17712 14.0885 8.20834 14.3142 8.30693 14.511C8.40551 14.7079 8.56562 14.8642 8.76105 14.9544C8.95648 15.0447 9.17566 15.0634 9.38272 15.0077C9.58978 14.9519 9.77247 14.825 9.90088 14.6476L14.063 8.89369C14.1761 8.73649 14.3321 8.61806 14.5108 8.55369L21.56 6.03375C21.6773 5.99585 21.7848 5.93084 21.8743 5.84364C21.9639 5.75643 22.0332 5.64929 22.0771 5.53028C22.1092 5.4386 22.1159 5.33945 22.0965 5.24401C22.0771 5.14858 22.0324 5.06066 21.9673 4.9902C20.8915 3.71257 19.32 2.4611 17.4142 2.61279H17.4155Z" fill="#704E2E"/>
</svg>
