<svg width="22" height="16" viewBox="0 0 22 16" fill="none" xmlns="http://www.w3.org/2000/svg">
<path d="M19.5197 0.725097C19.3844 0.53201 19.2045 0.374359 18.9954 0.265483C18.7862 0.156608 18.5539 0.0997122 18.3182 0.0996094H1.46667C1.07782 0.100046 0.705018 0.25471 0.430059 0.529669C0.1551 0.804627 0.00043672 1.17743 0 1.56628V12.9329H1.88292C2.01177 13.6526 2.38961 14.3041 2.95031 14.7733C3.51101 15.2426 4.21886 15.4997 4.95 15.4997C5.68114 15.4997 6.38899 15.2426 6.94969 14.7733C7.51039 14.3041 7.88823 13.6526 8.01707 12.9329H13.6163C13.7451 13.6526 14.1229 14.3041 14.6836 14.7733C15.2443 15.2426 15.9522 15.4997 16.6833 15.4997C17.4145 15.4997 18.1223 15.2426 18.683 14.7733C19.2437 14.3041 19.6216 13.6526 19.7504 12.9329H22V4.61515C22.0003 4.38942 21.9309 4.16909 21.8012 3.98435L19.5197 0.725097ZM7.51667 1.56628H14.1167V5.96628H7.51667V1.56628ZM1.46667 1.56628H6.05V5.96628H1.46667V1.56628ZM4.95 14.0329C4.62366 14.0329 4.30465 13.9362 4.03331 13.7549C3.76197 13.5736 3.55048 13.3159 3.4256 13.0144C3.30071 12.7129 3.26804 12.3811 3.3317 12.061C3.39537 11.741 3.55252 11.447 3.78327 11.2162C4.01403 10.9855 4.30803 10.8283 4.6281 10.7646C4.94817 10.701 5.27993 10.7337 5.58143 10.8585C5.88293 10.9834 6.14062 11.1949 6.32192 11.4663C6.50323 11.7376 6.6 12.0566 6.6 12.3829C6.59951 12.8204 6.42552 13.2398 6.11619 13.5491C5.80686 13.8585 5.38746 14.0325 4.95 14.0329V14.0329ZM16.6833 14.0329C16.357 14.0329 16.038 13.9362 15.7666 13.7549C15.4953 13.5736 15.2838 13.3159 15.1589 13.0144C15.034 12.7129 15.0014 12.3811 15.065 12.061C15.1287 11.741 15.2858 11.447 15.5166 11.2162C15.7474 10.9855 16.0414 10.8283 16.3614 10.7646C16.6815 10.701 17.0133 10.7337 17.3148 10.8585C17.6163 10.9834 17.874 11.1949 18.0553 11.4663C18.2366 11.7376 18.3333 12.0566 18.3333 12.3829C18.3328 12.8204 18.1589 13.2398 17.8495 13.5491C17.5402 13.8585 17.1208 14.0325 16.6833 14.0329V14.0329ZM20.5333 11.4663H19.6622C19.4662 10.8292 19.0712 10.2717 18.535 9.87572C17.9989 9.47971 17.3499 9.26602 16.6833 9.26602C16.0168 9.26602 15.3678 9.47971 14.8317 9.87572C14.2955 10.2717 13.9004 10.8292 13.7044 11.4663H7.92889C7.7329 10.8292 7.33783 10.2717 6.80168 9.87572C6.26553 9.47971 5.61654 9.26602 4.95 9.26602C4.28346 9.26602 3.63447 9.47971 3.09832 9.87572C2.56217 10.2717 2.1671 10.8292 1.97111 11.4663H1.46667V7.43294H20.5333V11.4663ZM20.5333 5.96628H15.5833V1.56628H18.3182L20.5333 4.73075V5.96628Z" fill="#B19C61"/>
</svg>
