<svg width="20" height="26" viewBox="0 0 20 26" fill="none" xmlns="http://www.w3.org/2000/svg">
<path d="M5.45287 4.1698H7.67931M4.98087 7.98145C5.10611 7.85637 5.27587 7.78612 5.45287 7.78612C5.62987 7.78612 5.79964 7.85637 5.92488 7.98145L9.70982 11.7664C9.77199 11.8285 9.8213 11.9022 9.85492 11.9834C9.88854 12.0646 9.90581 12.1516 9.90574 12.2395V23.5398C9.90574 23.6275 9.88847 23.7144 9.8549 23.7954C9.82133 23.8764 9.77213 23.9501 9.71011 24.0121C9.64809 24.0741 9.57446 24.1233 9.49342 24.1569C9.41238 24.1904 9.32553 24.2077 9.23781 24.2077H1.66793C1.58022 24.2077 1.49336 24.1904 1.41232 24.1569C1.33129 24.1233 1.25766 24.0741 1.19563 24.0121C1.13361 23.9501 1.08441 23.8764 1.05084 23.7954C1.01728 23.7144 1 23.6275 1 23.5398V12.2395C0.999931 12.1516 1.0172 12.0646 1.05082 11.9834C1.08444 11.9022 1.13375 11.8285 1.19593 11.7664L4.98087 7.98145V7.98145ZM5.45287 7.50945V4.1698V7.50945ZM5.45287 1.94336V4.1698V1.94336ZM5.45287 4.1698H3.22644H5.45287Z" stroke="#704E2E" stroke-width="2" stroke-linecap="round" stroke-linejoin="round"/>
<path d="M9.34939 24.208C9.4371 24.208 18.3184 24.1908 18.3994 24.1572C18.4805 24.1236 18.5541 24.0744 18.6161 24.0124C18.6781 23.9504 18.7273 23.8767 18.7609 23.7957C18.7945 23.7147 18.8117 23.6278 18.8117 23.5401V11.6832C18.8118 11.5953 18.7945 11.5083 18.7609 11.4271C18.7273 11.346 18.678 11.2722 18.6158 11.2101L15.1114 7.70569C14.9863 7.58039 14.8165 7.50992 14.6394 7.50977H5.45312M5.45312 24.208V18.6419M5.45312 14.2002L5.46426 14.188" stroke="#704E2E" stroke-width="2" stroke-linecap="round" stroke-linejoin="round"/>
</svg>
