<svg width="25" height="29" viewBox="0 0 25 29" fill="none" xmlns="http://www.w3.org/2000/svg">
<path d="M5 0.00390625H7V10.0039H5V0.00390625Z" fill="#B19C61"/>
<path d="M10 9.00436C10 10.0652 9.57857 11.0826 8.82843 11.8328C8.07828 12.5829 7.06087 13.0044 6 13.0044C4.93913 13.0044 3.92172 12.5829 3.17157 11.8328C2.42143 11.0826 2 10.0652 2 9.00436V0.00435619H0V9.00436C0.00143584 10.4212 0.504246 11.7919 1.41939 12.8736C2.33452 13.9553 3.60294 14.6782 5 14.9144V28.0044H7V14.9144C8.39706 14.6782 9.66548 13.9553 10.5806 12.8736C11.4958 11.7919 11.9986 10.4212 12 9.00436V0.00435619H10V9.00436ZM18 0.00435619H17V28.0044H19V18.0044H22C22.5304 18.0044 23.0391 17.7936 23.4142 17.4186C23.7893 17.0435 24 16.5348 24 16.0044V6.00436C24.0309 5.20813 23.8969 4.41411 23.6063 3.67217C23.3157 2.93022 22.8749 2.25636 22.3114 1.69292C21.748 1.12948 21.0741 0.68863 20.3322 0.398046C19.5902 0.107463 18.7962 -0.0265732 18 0.00435619ZM22 16.0044H19V2.09436C21.88 2.65436 22 5.63436 22 6.00436V16.0044Z" fill="#B19C61"/>
</svg>
