<svg width="29" height="12" viewBox="0 0 29 12" fill="none" xmlns="http://www.w3.org/2000/svg">
<path d="M14.4972 0.5H14.4972C11.3106 0.5002 8.20782 1.40071 5.68124 3.06872C3.15393 4.73722 1.34018 7.08432 0.550057 9.74913L0.550039 9.74913L0.548842 9.7533C0.43995 10.1326 0.516489 10.528 0.743102 10.8454L1.15003 10.5549L0.743103 10.8454C0.966403 11.1582 1.31057 11.3637 1.68442 11.443L1.78812 10.9539L1.68442 11.443C2.05846 11.5223 2.45683 11.4748 2.79784 11.3032C3.13959 11.1313 3.41378 10.8379 3.52743 10.4653L3.52744 10.4653L3.52837 10.4622C4.13371 8.43008 5.52866 6.60902 7.5143 5.29922C9.50066 3.98895 11.9567 3.27154 14.4931 3.27075C17.0295 3.26997 19.4862 3.98588 21.4737 5.29495C23.4584 6.60219 24.8541 8.42002 25.4622 10.4493C25.5132 10.6357 25.6056 10.8065 25.7292 10.9531C25.8545 11.1016 26.0093 11.2225 26.1812 11.3122C26.3532 11.4019 26.5412 11.46 26.7341 11.4853C26.927 11.5107 27.1239 11.5032 27.3142 11.463L27.2109 10.9738L27.3142 11.463C27.5044 11.4228 27.6871 11.3502 27.8508 11.2464C28.0147 11.1425 28.1581 11.0083 28.2688 10.8482L27.8575 10.5639L28.2688 10.8482C28.3797 10.6877 28.4549 10.5051 28.4852 10.3108C28.5151 10.1185 28.4995 9.92351 28.4407 9.7386C26.8283 4.30027 21.0728 0.5 14.4972 0.5Z" fill="#B19C61" stroke="#B19C61"/>
</svg>
