<svg width="25" height="25" viewBox="0 0 25 25" fill="none" xmlns="http://www.w3.org/2000/svg">
<path fill-rule="evenodd" clip-rule="evenodd" d="M7.45177 0.157122C8.76031 0.0968827 9.17753 0.0834961 12.5108 0.0834961C15.8441 0.0834961 16.2613 0.0979982 17.5687 0.157122C18.8761 0.216246 19.7686 0.424854 20.5494 0.727168C21.3671 1.03618 22.109 1.51921 22.7225 2.14392C23.3472 2.75635 23.8292 3.49708 24.137 4.31589C24.4405 5.09678 24.648 5.98922 24.7082 7.29441C24.7684 8.60518 24.7818 9.02239 24.7818 12.3545C24.7818 15.6878 24.7673 16.105 24.7082 17.4136C24.6491 18.7188 24.4405 19.6112 24.137 20.3921C23.8291 21.211 23.3464 21.9529 22.7225 22.5663C22.109 23.191 21.3671 23.6729 20.5494 23.9808C19.7686 24.2842 18.8761 24.4917 17.5709 24.552C16.2613 24.6122 15.8441 24.6256 12.5108 24.6256C9.17753 24.6256 8.76031 24.6111 7.45177 24.552C6.14658 24.4928 5.25414 24.2842 4.47326 23.9808C3.65435 23.6729 2.9124 23.1902 2.29905 22.5663C1.67477 21.9535 1.19166 21.2119 0.883418 20.3932C0.581104 19.6123 0.373612 18.7199 0.313372 17.4147C0.253133 16.1039 0.239746 15.6867 0.239746 12.3545C0.239746 9.02128 0.254248 8.60406 0.313372 7.29664C0.372496 5.98921 0.581104 5.09678 0.883418 4.31589C1.19212 3.49717 1.67559 2.75559 2.30017 2.1428C2.91265 1.51865 3.65385 1.03555 4.47214 0.727168C5.25303 0.424854 6.14547 0.217362 7.45066 0.157122H7.45177ZM17.4694 2.36591C16.1754 2.30679 15.7872 2.29452 12.5108 2.29452C9.23442 2.29452 8.84621 2.30679 7.55217 2.36591C6.35519 2.42057 5.70594 2.62026 5.27311 2.7887C4.70083 3.01181 4.29142 3.2762 3.86194 3.70569C3.45481 4.10176 3.14149 4.58394 2.94495 5.11686C2.77651 5.54969 2.57682 6.19894 2.52216 7.39592C2.46304 8.68996 2.45077 9.07817 2.45077 12.3545C2.45077 15.6309 2.46304 16.0191 2.52216 17.3132C2.57682 18.5101 2.77651 19.1594 2.94495 19.5922C3.14129 20.1243 3.45476 20.6074 3.86194 21.0034C4.25796 21.4106 4.74099 21.724 5.27311 21.9204C5.70594 22.0888 6.35519 22.2885 7.55217 22.3432C8.84621 22.4023 9.23331 22.4146 12.5108 22.4146C15.7883 22.4146 16.1754 22.4023 17.4694 22.3432C18.6664 22.2885 19.3156 22.0888 19.7485 21.9204C20.3208 21.6973 20.7302 21.4329 21.1596 21.0034C21.5668 20.6074 21.8803 20.1243 22.0766 19.5922C22.2451 19.1594 22.4448 18.5101 22.4994 17.3132C22.5585 16.0191 22.5708 15.6309 22.5708 12.3545C22.5708 9.07817 22.5585 8.68996 22.4994 7.39592C22.4448 6.19894 22.2451 5.54969 22.0766 5.11686C21.8535 4.54458 21.5891 4.13517 21.1596 3.70569C20.7635 3.29859 20.2814 2.98528 19.7485 2.7887C19.3156 2.62026 18.6664 2.42057 17.4694 2.36591ZM10.9434 16.1374C11.8188 16.5017 12.7934 16.5509 13.701 16.2765C14.6086 16.0021 15.3927 15.4211 15.9195 14.6328C16.4463 13.8444 16.683 12.8977 16.5893 11.9542C16.4956 11.0107 16.0772 10.129 15.4056 9.45969C14.9775 9.03185 14.4599 8.70425 13.89 8.50048C13.3201 8.29671 12.7121 8.22183 12.1097 8.28124C11.5074 8.34065 10.9258 8.53287 10.4066 8.84405C9.88753 9.15524 9.44386 9.57765 9.10759 10.0809C8.77131 10.5841 8.5508 11.1556 8.46192 11.7543C8.37304 12.353 8.41801 12.964 8.59358 13.5432C8.76916 14.1224 9.07097 14.6555 9.4773 15.1041C9.88363 15.5526 10.3844 15.9055 10.9434 16.1374ZM8.05082 7.89457C8.63651 7.30888 9.33183 6.84429 10.0971 6.52731C10.8623 6.21034 11.6825 6.04719 12.5108 6.04719C13.3391 6.04719 14.1593 6.21034 14.9245 6.52731C15.6897 6.84429 16.3851 7.30888 16.9708 7.89457C17.5564 8.48026 18.021 9.17558 18.338 9.94082C18.655 10.7061 18.8181 11.5262 18.8181 12.3545C18.8181 13.1828 18.655 14.003 18.338 14.7683C18.021 15.5335 17.5564 16.2288 16.9708 16.8145C15.7879 17.9974 14.1836 18.6619 12.5108 18.6619C10.838 18.6619 9.23368 17.9974 8.05082 16.8145C6.86797 15.6316 6.20344 14.0274 6.20344 12.3545C6.20344 10.6817 6.86797 9.07743 8.05082 7.89457ZM20.217 6.98652C20.3621 6.8496 20.4783 6.68496 20.5587 6.50234C20.6391 6.31972 20.682 6.12282 20.6849 5.92332C20.6878 5.72382 20.6506 5.52576 20.5756 5.34087C20.5006 5.15598 20.3893 4.98802 20.2482 4.84694C20.1071 4.70585 19.9392 4.59451 19.7543 4.5195C19.5694 4.44449 19.3713 4.40734 19.1718 4.41025C18.9723 4.41316 18.7754 4.45606 18.5928 4.53643C18.4102 4.6168 18.2455 4.73299 18.1086 4.87813C17.8423 5.16039 17.6966 5.53532 17.7022 5.92332C17.7079 6.31132 17.8645 6.68184 18.1389 6.95622C18.4133 7.23061 18.7838 7.38725 19.1718 7.39291C19.5598 7.39857 19.9347 7.25279 20.217 6.98652Z" fill="#B19C61"/>
</svg>
