<svg width="37" height="50" viewBox="0 0 37 50" fill="none" xmlns="http://www.w3.org/2000/svg">
<path d="M13.9879 31.93L25.68 11.8791H22.7174L15.5333 25.0238L16.7965 19.3746H12.84L8.89204 37.1742L8.49232 37.9056H8.09261L6.83148 30.2278H10.1168L12.1133 17.8229C12.1581 17.5474 12.2693 17.2866 12.4382 17.0641L25.3402 0H22.4973L11.72 15.3343H11.3886L5.62592 0H1.35946L8.98822 17.6576C9.0951 17.9056 9.12075 18.1791 9.06304 18.4419L6.66689 29.2315L3.81545 11.8791H0L5.54897 41.9734H7.82756L6.05556 49.9585H22.0933V47.3682C21.5119 47.8006 10.4097 47.9447 10.4097 47.9447L13.99 31.9321L13.9879 31.93Z" fill="#B19C61"/>
<path d="M18.0232 37.1768H16.9139L15.8066 41.9102H16.9139L18.0232 37.1768Z" fill="#B19C61"/>
<path d="M21.7148 41.5753L22.7451 37.1768H21.6357L20.5264 41.9102H21.6357H23.5467L23.6514 41.5753H21.7148Z" fill="#B19C61"/>
<path d="M27.4179 41.5753L28.4482 37.1768H27.3389L26.2295 41.9102H27.3389H29.2498L29.3545 41.5753H27.4179Z" fill="#B19C61"/>
<path d="M35.2111 37.1768H34.6126L31.8809 41.9102H32.5777L33.1976 40.6044H34.9717L35.1384 41.9102H36.2884L35.2111 37.1768ZM33.4648 40.1275L34.2877 38.6458H34.5869L34.8242 40.1275H33.4669H33.4648Z" fill="#B19C61"/>
</svg>
