<svg width="19" height="18" viewBox="0 0 19 18" fill="none" xmlns="http://www.w3.org/2000/svg">
<path d="M19 6.76828C19 6.95206 18.9328 7.1111 18.7985 7.2454L13.37 12.674C13.2357 12.8083 13.0766 12.8754 12.8929 12.8754C12.7091 12.8754 12.55 12.8083 12.4157 12.674C12.2814 12.5397 12.2143 12.3806 12.2143 12.1968V9.48256H9.83929C9.14658 9.48256 8.52632 9.50377 7.97852 9.54618C7.43071 9.58859 6.88644 9.66457 6.3457 9.77413C5.80497 9.8837 5.33491 10.0339 4.93555 10.2247C4.53618 10.4156 4.16332 10.6612 3.81696 10.9616C3.47061 11.262 3.18787 11.619 2.96875 12.0325C2.74963 12.446 2.57822 12.9355 2.45452 13.501C2.33082 14.0665 2.26897 14.7061 2.26897 15.4201C2.26897 15.8088 2.28664 16.2435 2.32199 16.7242C2.32199 16.7666 2.33082 16.8497 2.34849 16.9734C2.36616 17.0971 2.375 17.1907 2.375 17.2543C2.375 17.3604 2.34496 17.4487 2.28488 17.5194C2.2248 17.5901 2.14174 17.6254 2.03571 17.6254C1.92262 17.6254 1.82366 17.5653 1.73884 17.4452C1.68936 17.3816 1.64342 17.3038 1.601 17.2119C1.55859 17.12 1.51088 17.014 1.45787 16.8938C1.40485 16.7737 1.36775 16.6888 1.34654 16.6394C0.448847 14.6249 0 13.0309 0 11.8576C0 10.4509 0.187314 9.27404 0.561942 8.32687C1.70703 5.47828 4.79948 4.05399 9.83929 4.05399H12.2143V1.3397C12.2143 1.15592 12.2814 0.996884 12.4157 0.862584C12.55 0.728283 12.7091 0.661133 12.8929 0.661133C13.0766 0.661133 13.2357 0.728283 13.37 0.862584L18.7985 6.29115C18.9328 6.42546 19 6.5845 19 6.76828Z" fill="#FFFCF5"/>
</svg>
