<svg width="19" height="18" viewBox="0 0 19 18" fill="none" xmlns="http://www.w3.org/2000/svg">
<path d="M19.001 6.21456C19.001 6.39834 18.9338 6.55738 18.7995 6.69169L13.371 12.1203C13.2367 12.2546 13.0776 12.3217 12.8938 12.3217C12.7101 12.3217 12.551 12.2546 12.4167 12.1203C12.2824 11.986 12.2153 11.8269 12.2153 11.6431V8.92885H9.84026C9.14755 8.92885 8.5273 8.95006 7.97949 8.99247C7.43169 9.03488 6.88742 9.11086 6.34668 9.22042C5.80594 9.32998 5.33589 9.48019 4.93652 9.67104C4.53716 9.86189 4.16429 10.1075 3.81794 10.4079C3.47159 10.7083 3.18885 11.0653 2.96973 11.4788C2.7506 11.8923 2.57919 12.3818 2.4555 12.9473C2.3318 13.5127 2.26995 14.1524 2.26995 14.8663C2.26995 15.2551 2.28762 15.6898 2.32296 16.1705C2.32296 16.2129 2.3318 16.2959 2.34947 16.4196C2.36714 16.5433 2.37598 16.637 2.37598 16.7006C2.37598 16.8066 2.34594 16.895 2.28585 16.9657C2.22577 17.0364 2.14272 17.0717 2.03669 17.0717C1.9236 17.0717 1.82464 17.0116 1.73982 16.8915C1.69034 16.8278 1.64439 16.7501 1.60198 16.6582C1.55957 16.5663 1.51186 16.4603 1.45884 16.3401C1.40583 16.22 1.36872 16.1351 1.34752 16.0857C0.449823 14.0711 0.000976562 12.4772 0.000976562 11.3039C0.000976562 9.89723 0.188291 8.72033 0.562919 7.77316C1.70801 4.92457 4.80046 3.50028 9.84026 3.50028H12.2153V0.785993C12.2153 0.602214 12.2824 0.443173 12.4167 0.308873C12.551 0.174572 12.7101 0.107422 12.8938 0.107422C13.0776 0.107422 13.2367 0.174572 13.371 0.308873L18.7995 5.73744C18.9338 5.87174 19.001 6.03078 19.001 6.21456Z" fill="#704E2E"/>
</svg>
