<svg width="22" height="26" viewBox="0 0 22 26" fill="none" xmlns="http://www.w3.org/2000/svg">
<path d="M1.90105 10.521C1.94583 9.96304 2.19912 9.44243 2.61048 9.06285C3.02183 8.68326 3.56107 8.47254 4.12081 8.47266H17.544C18.1037 8.47254 18.643 8.68326 19.0543 9.06285C19.4657 9.44243 19.719 9.96304 19.7637 10.521L20.6577 21.6532C20.6822 21.9595 20.6431 22.2676 20.5428 22.5581C20.4425 22.8486 20.2831 23.1152 20.0747 23.3411C19.8663 23.5669 19.6133 23.7472 19.3318 23.8706C19.0503 23.9939 18.7464 24.0576 18.439 24.0577H3.22578C2.91844 24.0576 2.61446 23.9939 2.33296 23.8706C2.05145 23.7472 1.79854 23.5669 1.59012 23.3411C1.38171 23.1152 1.22232 22.8486 1.12199 22.5581C1.02165 22.2676 0.982549 21.9595 1.00714 21.6532L1.90105 10.521V10.521Z" stroke="#704E2E" stroke-width="2" stroke-linecap="round" stroke-linejoin="round"/>
<path d="M15.2846 11.8119V6.24584C15.2846 5.06487 14.8155 3.93226 13.9804 3.09718C13.1454 2.26211 12.0128 1.79297 10.8318 1.79297C9.6508 1.79297 8.5182 2.26211 7.68312 3.09718C6.84805 3.93226 6.37891 5.06487 6.37891 6.24584V11.8119" stroke="#704E2E" stroke-width="2" stroke-linecap="round" stroke-linejoin="round"/>
</svg>
