<svg width="27" height="21" viewBox="0 0 27 21" fill="none" xmlns="http://www.w3.org/2000/svg">
<path d="M1.63844 0.72168V5.63701H0V8.09467H0.819221V13.01H0V15.4677H1.63844V20.383H5.37655C7.39277 20.3819 9.32616 19.5808 10.7523 18.1555L14.311 14.623L20.8901 14.0594C21.9299 13.9761 22.9374 13.6589 23.8374 13.1314C24.7373 12.604 25.5065 11.88 26.0873 11.0136L26.3683 10.5523L26.0873 10.0911C25.5064 9.2248 24.7372 8.50097 23.8373 7.97368C22.9373 7.44639 21.9299 7.12929 20.8901 7.04607L14.311 6.48244L10.8801 3.05236L10.7523 2.94996C9.32589 1.52451 7.39228 0.723134 5.37573 0.72168H1.63844ZM3.27688 2.36012H5.37655C6.95942 2.35855 8.47835 2.98456 9.60045 4.10097L11.9303 6.45623H8.19221V8.09467H13.9268L20.7369 8.65829C22.119 8.77298 23.3191 9.51848 24.2186 10.5523C23.3191 11.5862 22.119 12.3317 20.7369 12.4472L13.8489 13.01H8.19221V14.6484H11.9303L9.60045 17.0037C8.47835 18.1201 6.95942 18.7461 5.37655 18.7445H3.27688V13.01H2.45766V8.09467H3.27688V2.36012ZM19.6613 9.73311V11.3716H21.2997V9.73311H19.6613ZM4.91533 14.6484V17.1061H6.55377V14.6484H4.91533Z" fill="#704E2E"/>
</svg>
