<svg width="30" height="23" viewBox="0 0 30 23" fill="none" xmlns="http://www.w3.org/2000/svg">
<path d="M27.8807 10.1703C28.5308 11.0206 28.5308 12.1686 27.8807 13.0176C25.833 15.6907 20.9201 21.1947 15.1843 21.1947C9.44856 21.1947 4.53571 15.6907 2.488 13.0176C2.1717 12.6104 2 12.1095 2 11.5939C2 11.0784 2.1717 10.5774 2.488 10.1703C4.53571 7.49715 9.44856 1.99316 15.1843 1.99316C20.9201 1.99316 25.833 7.49715 27.8807 10.1703V10.1703Z" stroke="#704E2E" stroke-width="2.5" stroke-linecap="round" stroke-linejoin="round"/>
<path d="M15.1844 15.7087C17.4569 15.7087 19.2991 13.8666 19.2991 11.5941C19.2991 9.32167 17.4569 7.47949 15.1844 7.47949C12.912 7.47949 11.0698 9.32167 11.0698 11.5941C11.0698 13.8666 12.912 15.7087 15.1844 15.7087Z" stroke="#704E2E" stroke-width="2.5" stroke-linecap="round" stroke-linejoin="round"/>
</svg>
