<svg width="27" height="24" viewBox="0 0 27 24" fill="none" xmlns="http://www.w3.org/2000/svg">
<path d="M22.4183 0.246094C21.8057 0.249669 21.2022 0.395583 20.6556 0.672323C20.109 0.949062 19.6342 1.34905 19.2686 1.84073C18.0287 1.59158 16.7625 1.4986 15.4995 1.56397L15.6708 4.19973C16.6056 4.15189 17.5428 4.20936 18.4647 4.37106C18.4983 5.14483 18.7584 5.8917 19.2127 6.51895C19.667 7.1462 20.2956 7.62619 21.0203 7.89934C21.745 8.17248 22.534 8.22674 23.2893 8.05539C24.0447 7.88404 24.733 7.49461 25.2689 6.93547C25.8048 6.37633 26.1647 5.67209 26.3039 4.9102C26.4431 4.1483 26.3554 3.36231 26.0518 2.64981C25.7482 1.9373 25.242 1.32966 24.596 0.902338C23.9501 0.475013 23.1928 0.246821 22.4183 0.246094V0.246094ZM22.4183 5.51761C22.1577 5.51761 21.9029 5.44032 21.6862 5.29551C21.4694 5.1507 21.3005 4.94487 21.2008 4.70406C21.101 4.46325 21.0749 4.19827 21.1258 3.94263C21.1766 3.68698 21.3022 3.45216 21.4865 3.26785C21.6708 3.08354 21.9056 2.95803 22.1612 2.90717C22.4169 2.85632 22.6819 2.88242 22.9227 2.98217C23.1635 3.08192 23.3693 3.25083 23.5141 3.46756C23.6589 3.68428 23.7362 3.93908 23.7362 4.19973C23.7362 4.54926 23.5974 4.88446 23.3502 5.13161C23.1031 5.37876 22.7679 5.51761 22.4183 5.51761ZM9.05505 6.65099L7.48677 4.5292C9.03956 3.38088 10.7975 2.53992 12.666 2.05159L13.325 4.60827C11.7847 5.01148 10.3355 5.70477 9.05505 6.65099ZM25.0541 20.0143C25.0592 20.6502 24.9108 21.2779 24.6216 21.8442C24.3324 22.4105 23.9108 22.8987 23.3927 23.2673C22.8746 23.636 22.2752 23.8742 21.6454 23.9619C21.0156 24.0495 20.3739 23.9839 19.7748 23.7707C19.1758 23.5574 18.637 23.2029 18.2041 22.737C17.7713 22.2712 17.4573 21.7078 17.2886 21.0947C17.1199 20.4816 17.1016 19.8368 17.2352 19.2151C17.3689 18.5934 17.6505 18.0131 18.0562 17.5235C16.821 16.3285 15.3524 15.4015 13.7423 14.8005C12.1322 14.1996 10.4153 13.9376 8.69922 14.0311C8.40929 14.0443 8.13253 14.0838 7.8426 14.1365C7.71331 14.8425 7.39428 15.5 6.91972 16.0384C6.44517 16.5769 5.83299 16.976 5.14885 17.193C4.46471 17.41 3.73441 17.4366 3.03627 17.2701C2.33814 17.1035 1.6985 16.7501 1.18597 16.2477C0.673433 15.7452 0.307332 15.1128 0.12693 14.4181C-0.0534722 13.7234 -0.0413709 12.9927 0.161936 12.3044C0.365243 11.6161 0.752087 10.9961 1.28098 10.5109C1.80987 10.0257 2.46086 9.69365 3.16413 9.55032C3.75626 8.42687 4.48678 7.382 5.33863 6.44013L7.26273 8.23244C6.77088 8.7847 6.32981 9.38015 5.94485 10.0116C6.56376 10.3754 7.07355 10.8988 7.42088 11.5271C7.80306 11.4481 8.17207 11.4481 8.58061 11.3954C10.7744 11.2785 12.9673 11.6413 15.0066 12.4584C17.0459 13.2754 18.8826 14.5272 20.3888 16.1265C20.6235 16.0828 20.8617 16.0608 21.1005 16.0606C22.149 16.0606 23.1547 16.4772 23.8961 17.2186C24.6376 17.9601 25.0541 18.9657 25.0541 20.0143Z" fill="#704E2E"/>
</svg>
