<svg width="30" height="26" viewBox="0 0 30 26" fill="none" xmlns="http://www.w3.org/2000/svg">
<path d="M2.33146 8.17421L7.61373 2.44302C7.74604 2.3021 7.90603 2.19001 8.08367 2.11379C8.2613 2.03756 8.45276 1.99883 8.64606 2.00003H21.7222C21.9155 1.99883 22.107 2.03756 22.2846 2.11379C22.4622 2.19001 22.6222 2.3021 22.7545 2.44302L28.0368 8.17421C28.2536 8.40461 28.3725 8.71027 28.3682 9.02663C28.3639 9.34299 28.2368 9.6453 28.0137 9.86971L15.6785 23.8529C15.6167 23.9231 15.5406 23.9793 15.4554 24.0177C15.3701 24.0562 15.2777 24.0761 15.1841 24.0761C15.0906 24.0761 14.9982 24.0562 14.9129 24.0177C14.8277 23.9793 14.7516 23.9231 14.6897 23.8529L2.35453 9.86971C2.1315 9.6453 2.00442 9.34299 2.00011 9.02663C1.99581 8.71027 2.11462 8.40461 2.33146 8.17421V8.17421Z" stroke="#704E2E" stroke-width="2.5" stroke-linecap="round" stroke-linejoin="round"/>
<path d="M9.91113 10.5693L15.1848 16.5023L20.4585 10.5693" stroke="#704E2E" stroke-width="2.5" stroke-linecap="round" stroke-linejoin="round"/>
</svg>
