<svg width="66" height="11" viewBox="0 0 66 11" fill="none" xmlns="http://www.w3.org/2000/svg">
<path d="M59.235 2.55306C56.76 1.34036 54.021 0 49.5 0C44.979 0 42.24 1.34036 39.765 2.55306C37.62 3.57429 35.871 4.46786 33 4.46786C30.03 4.46786 28.38 3.67003 26.235 2.55306C23.76 1.37227 21.054 0 16.5 0C11.946 0 9.24 1.34036 6.765 2.55306C5.346 3.25515 4.092 3.86151 2.574 4.21255C1.089 4.53168 0 5.68056 0 7.11666V7.34005C0 9.25485 1.782 10.659 3.696 10.2761C6.171 9.79737 8.019 8.87189 9.735 8.07406C11.88 7.02092 13.596 6.15926 16.5 6.15926C19.404 6.15926 21.12 6.95709 23.265 8.07406C25.74 9.28676 28.446 10.6271 33 10.6271C37.554 10.6271 40.26 9.25485 42.735 8.07406C44.88 7.05283 46.629 6.15926 49.5 6.15926C52.47 6.15926 54.12 6.95709 56.265 8.07406C57.981 8.9038 59.829 9.82929 62.304 10.308C62.7525 10.3926 63.2149 10.3804 63.6579 10.2721C64.101 10.1638 64.5138 9.96223 64.867 9.68172C65.2201 9.4012 65.5048 9.04869 65.7006 8.6494C65.8965 8.25011 65.9987 7.8139 66 7.37197V7.08475C66 5.61674 64.878 4.46786 63.393 4.14873C61.875 3.82959 60.654 3.25515 59.235 2.55306Z" fill="#B19C61"/>
</svg>
