<svg width="26" height="26" viewBox="0 0 26 26" fill="none" xmlns="http://www.w3.org/2000/svg">
<path d="M10.844 0C9.231 0 8.094 1.14614 8.094 2.75998C8.094 4.5364 9.492 5.69158 10.844 6.8056C11.286 7.16992 11.718 7.53625 12.125 7.93469H5C3.684 7.93469 2.591 8.78878 2.187 9.97306C2.187 9.97306 2.391 11.9492 5.5 11.9492C8.39 11.9492 8.497 10.4739 8.5 10.4126C8.5067 10.2846 8.56248 10.1641 8.65567 10.0764C8.74886 9.98864 8.87224 9.94047 9 9.94194C9.13126 9.94621 9.25598 10.0004 9.34884 10.0936C9.44171 10.1868 9.49575 10.312 9.5 10.4438C9.504 10.4949 9.645 11.9492 13 11.9492C16.355 11.9492 16.495 10.4739 16.5 10.4126C16.511 10.2806 16.5723 10.1579 16.6713 10.0702C16.7702 9.98253 16.8991 9.93657 17.031 9.94194C17.159 9.94743 17.2798 10.003 17.3675 10.0968C17.4552 10.1906 17.5027 10.3152 17.5 10.4438C17.502 10.497 17.59 11.9492 20.5 11.9492C23.703 11.9492 23.813 9.97306 23.813 9.97306C23.409 8.78978 22.314 7.93469 21 7.93469H13.875C14.2855 7.53991 14.7129 7.1632 15.156 6.8056C16.507 5.69158 17.906 4.5354 17.906 2.75998C17.906 1.14614 16.77 0 15.156 0C14.226 0 13.439 0.668417 13 1.12908C12.563 0.667413 11.773 0 10.844 0V0ZM9.03 11.6672C8.542 12.3055 7.542 12.9528 5.5 12.9528C3.495 12.9528 2.499 12.3256 2 11.6983V15.9637H24V11.6983C23.501 12.3205 22.502 12.9528 20.5 12.9528C18.45 12.9528 17.456 12.3035 16.969 11.6672C16.415 12.3025 15.285 12.9528 13 12.9528C10.707 12.9528 9.582 12.3055 9.031 11.6672H9.03ZM3 16.9673C1.684 16.9673 0.591 17.8214 0.187 19.0057C0.188 19.0057 0.391 20.9819 3.5 20.9819C6.39 20.9819 7.497 19.5065 7.5 19.4453C7.5067 19.3172 7.56248 19.1968 7.65567 19.109C7.74886 19.0213 7.87224 18.9731 8 18.9746C8.13126 18.9789 8.25598 19.0331 8.34884 19.1263C8.44171 19.2195 8.49575 19.3447 8.5 19.4764C8.504 19.5276 9.645 20.9819 13 20.9819C16.355 20.9819 17.495 19.5065 17.5 19.4453C17.511 19.3133 17.5723 19.1906 17.6713 19.1029C17.7702 19.0152 17.8991 18.9692 18.031 18.9746C18.159 18.9801 18.2798 19.0357 18.3675 19.1295C18.4552 19.2233 18.5027 19.3478 18.5 19.4764C18.502 19.5296 19.59 20.9819 22.5 20.9819C25.703 20.9819 25.813 19.0057 25.813 19.0057C25.409 17.8224 24.314 16.9673 23 16.9673H3ZM8.031 20.6998C7.542 21.3381 5.542 21.9855 3.5 21.9855C1.495 21.9855 0.499 21.3582 0 20.731V23.9927C0 25.6548 1.344 26 3 26H23C24.656 26 26 25.6548 26 23.9927V20.731C25.501 21.3532 24.502 21.9855 22.5 21.9855C20.45 21.9855 18.456 21.3361 17.969 20.6998C17.415 21.3351 15.285 21.9855 13 21.9855C10.707 21.9855 8.582 21.3381 8.031 20.6998Z" fill="#704E2E"/>
</svg>
