<svg width="27" height="28" viewBox="0 0 27 28" fill="none" xmlns="http://www.w3.org/2000/svg">
<path d="M17.2847 15.5011C17.8879 15.6909 18.4659 15.9531 19.006 16.282L18.9714 16.2619C19.5616 16.5241 20.0714 16.8309 20.5365 17.1912L20.5198 17.1789C20.5421 17.247 20.5555 17.3239 20.5555 17.4054L20.5544 17.4411V17.44C20.5377 17.9185 20.4317 18.3681 20.2521 18.7775L20.261 18.7541C20.0033 19.2706 19.5738 19.6688 19.0484 19.8808L19.0328 19.8864C18.4891 20.1706 17.8879 20.3274 17.2747 20.3448H17.268C16.0975 20.1943 14.9663 19.8226 13.9347 19.2494L13.9827 19.2739C12.887 18.7776 11.8906 18.0862 11.0421 17.2336L11.041 17.2325C10.1155 16.2689 9.27637 15.2259 8.53323 14.1156L8.4808 14.0331C7.74334 13.0691 7.31549 11.9041 7.2537 10.692L7.25258 10.6775V10.5392C7.26895 10.0214 7.39053 9.51234 7.60993 9.04304C7.82933 8.57375 8.14196 8.15402 8.52877 7.80942L8.53212 7.80607C8.77106 7.568 9.09289 7.43167 9.43013 7.42567H9.43125C9.54392 7.42902 9.65213 7.43794 9.75699 7.45356L9.74249 7.45133C9.83954 7.46583 9.95221 7.47475 10.0682 7.47698H10.0716C10.234 7.46119 10.3969 7.50134 10.5334 7.59077L10.5312 7.58966C10.6505 7.72129 10.742 7.88081 10.7967 8.05595L10.7989 8.06488C10.8911 8.29543 11.0815 8.80263 11.3701 9.58649C11.5207 9.93677 11.6679 10.3685 11.7862 10.8125L11.8018 10.8828C11.7213 11.271 11.5118 11.6206 11.2072 11.8745L11.2039 11.8767C10.806 12.2976 10.607 12.5654 10.607 12.6799C10.6113 12.7738 10.6427 12.8645 10.6974 12.9409L10.6963 12.9398C11.1277 13.8318 11.7243 14.6339 12.4544 15.3037L12.46 15.3093C13.2243 15.9978 14.0811 16.576 15.0056 17.0272L15.0715 17.0562C15.1845 17.1296 15.315 17.1715 15.4496 17.1778H15.4519C15.6252 17.1778 15.9368 16.8982 16.3867 16.3389C16.8366 15.7796 17.1356 15.5 17.2836 15.5L17.2847 15.5011ZM13.7741 24.6665H13.7986C15.2634 24.6686 16.7125 24.365 18.0533 23.7752L17.9853 23.8019C20.6135 22.6931 22.6628 20.6438 23.7449 18.0859L23.7716 18.0156C24.3183 16.774 24.6362 15.326 24.6362 13.8044C24.6362 12.2828 24.3183 10.8348 23.7449 9.52402L23.7716 9.59318C22.6628 6.96495 20.6135 4.91568 18.0556 3.8336L17.9853 3.80683C16.7437 3.26021 15.2957 2.94228 13.7741 2.94228C12.2525 2.94228 10.8045 3.26021 9.49372 3.8336L9.56288 3.80683C6.93465 4.91568 4.88539 6.96495 3.8033 9.5229L3.77653 9.59318C3.20135 10.9271 2.90706 12.3652 2.91198 13.8178C2.90838 16.1145 3.64323 18.3515 5.0081 20.1987L4.9869 20.1697L3.62035 24.2002L7.80589 22.8682C9.55438 24.0459 11.6158 24.6723 13.7239 24.6665H13.7763H13.7741ZM13.7741 0.764724H13.8109C15.627 0.764724 17.3539 1.14624 18.9145 1.83454L18.8331 1.80219C21.9845 3.1375 24.4421 5.59505 25.745 8.6617L25.7774 8.74648C26.4333 10.238 26.8149 11.9771 26.8149 13.8055C26.8149 15.6339 26.4333 17.373 25.745 18.9471L25.7774 18.8645C24.4421 22.0159 21.9845 24.4735 18.9179 25.7765L18.8331 25.8088C17.3528 26.4648 15.6259 26.8463 13.8098 26.8463H13.7719H13.7741H13.715C11.418 26.8463 9.26169 26.2428 7.39649 25.1863L7.46007 25.2198L0.248047 27.5379L2.60074 20.5334C1.37265 18.5132 0.726408 16.1931 0.733311 13.8289C0.733311 11.9927 1.11483 10.2458 1.80312 8.66281L1.77077 8.74648C3.10608 5.59505 5.56364 3.1375 8.63028 1.83454L8.71507 1.80219C10.2995 1.11199 12.0101 0.758699 13.7384 0.764724H13.7752H13.773H13.7741Z" fill="#B19C61"/>
</svg>
